<?xml version="1.0" encoding="utf-8"?>
<!-- Generator: Adobe Illustrator 21.1.0, SVG Export Plug-In . SVG Version: 6.00 Build 0)  -->
<svg version="1.1" id="Layer_1" xmlns="http://www.w3.org/2000/svg" xmlns:xlink="http://www.w3.org/1999/xlink" x="0px" y="0px"
	 viewBox="0 0 825.8 550.7" style="enable-background:new 0 0 825.8 550.7;" xml:space="preserve">
<style type="text/css">
	.st0{fill:#013049;}
	.st1{fill:#F37043;}
</style>
<g>
	<path class="st0" d="M206.7,324h-39v120.1h39c37.3,0,60.5-23,60.5-60.1c0-17.7-5.5-32.7-15.9-43.3C240.5,329.8,225.1,324,206.7,324
		z M253.3,384c0,30.4-17,47.8-46.6,47.8h-25.1v-95.4h25.1C235.9,336.4,253.3,354.2,253.3,384z"/>
	<path class="st0" d="M328.3,355l-0.5,0l0,0c-13.6,0.1-25.1,4.6-33.1,13.2c-7.7,8.2-11.8,19.4-11.8,32.5c0,13.1,4.1,24.3,11.8,32.5
		c8.1,8.6,19.7,13.1,33.6,13.1c14,0,25.7-4.5,33.7-13c7.7-8.1,11.7-19.4,11.7-32.7C373.7,372.9,355.9,355,328.3,355z M360.2,400.7
		c0,21.2-11.9,33.9-31.9,33.9c-19.7,0-31.9-13-31.9-33.9c0-20.9,12.2-33.9,31.9-33.9C348,366.8,360.2,379.8,360.2,400.7z"/>
	<polygon class="st0" points="422.6,427 395.1,357.2 381,357.2 416.1,444.1 429.1,444.1 464.2,357.2 450.1,357.2 	"/>
	<path class="st0" d="M518.8,354.9c-26.7,0-44,17.9-44,45.5c0,27.8,17.6,45.7,45,45.7c12.5,0,23.8-3.2,32.7-9.2l1.8-1.2l-6.5-8.2
		l-1.5,0.8c-7.8,4.3-17,6.5-26.5,6.3c-17.2-0.1-28.8-10.2-31.2-26.9h70.5l0.3-1.6c0.6-3.4,1-7.6,1-11.2
		C560.5,369.1,545.7,354.9,518.8,354.9z M488.3,397.9c0.4-19.5,12.2-31.6,30.7-31.6c19.2,0,28.5,8.8,28.5,27c0,1.5-0.1,3.1-0.2,4.6
		H488.3z"/>
	<path class="st0" d="M606.5,425.9c-4-4.4-6-10.5-6-18.1v-39.2h25.1v-11.3h-25.1V333h-13.5v24.2h-16.8v11.3h16.8v39.2
		c0,11.4,3.4,20.5,10.2,27c6.4,6.2,15.4,9.7,26.9,10.4l2.1,0.1V434l-1.8-0.2C616.5,433,610.5,430.3,606.5,425.9z"/>
	<path class="st0" d="M708.8,363.1c-7-5.2-16.4-8-26.4-8c0,0,0,0,0,0c-10.5,0-22.1,3.1-31.8,8.5l-1.6,0.9l4.2,9.7l1.9-1.1
		c7.8-4.4,17.4-7,25.7-7c13.3,0,26.8,7.4,26.9,21.6v6c-7.9-3.8-17.7-6-27.4-6c-17.3,0-37.6,7.7-37.6,29.4
		c0,20.1,17.8,29.2,34.4,29.2c8.8,0,21-2.1,31.3-11.7l0.3,9.7h12.5v-56.4C721.2,377.6,716.9,369,708.8,363.1z M707.7,404.6v17.7
		c-7,8.4-16.6,12.7-28.4,12.7c-11.8,0-23.7-5.7-23.7-18.4c0-4.4,1.9-18.6,26.1-18.6C691.2,397.9,700.8,400.4,707.7,404.6z"/>
	<rect x="747.6" y="357.2" class="st0" width="13.5" height="86.9"/>
	<path class="st0" d="M754.4,326.9c-4.3,0-7.8,3.3-7.8,7.4s3.5,7.4,7.8,7.4c4.3,0,7.8-3.3,7.8-7.4S758.7,326.9,754.4,326.9z"/>
	<path class="st0" d="M822.4,433.7c-0.1,0-0.1,0-0.2,0c-7.8,0-13.7-2.1-17.5-6.4c-3.8-4.3-5.8-11.1-5.8-20l0-89.5h-13.5v89.5
		c0,12.6,3.3,22.3,9.8,28.7c6,5.9,14.5,9,25.4,9c0.6,0,1.2,0,1.8,0l1.9-0.1v-11.2L822.4,433.7z"/>
</g>
<g>
	<path class="st0" d="M363.6,127.4c-6.3-11.8-15.8-27-38-19.8c-10.5,3.4-31.6,13.3-57.6,30c29.6-48.1,9.8-97.2,69.9-125.3
		C251.8,23.1,216.6,119.4,208.7,145C157.6,58.3,44.7,85.4,4.6,0c-16.6,27.7,6,207.2,168.5,215.9c-47.3,49.3-92.1,115.7-113.2,200.2
		c61.8-159.3,247.7-287.4,321.9-268.5C381.8,147.6,369.4,138.1,363.6,127.4z"/>
</g>
<g>
	<path class="st1" d="M198,521.2h19.2V537c-4.3,4.9-10.5,7.3-18.2,7.3c-14.8,0-24.4-10.3-24.4-26.2c0-15.8,9.6-26.1,24.4-26.1
		c7.7,0,14.1,2.5,18.9,7.5l0.7,0.7l4.6-4.3l-0.7-0.7c-5.7-6.3-13.8-9.6-23.6-9.6c-19.2,0-31.6,12.7-31.6,32.4
		c0,19.5,12.7,32.5,31.6,32.5c10.8,0,19.5-3.9,25.1-11.2l0.2-0.3v-24.2H198V521.2z"/>
	<polygon class="st1" points="266,549.7 306.1,549.7 306.1,543.4 273.2,543.4 273.2,520.5 303.3,520.5 303.3,514.1 273.2,514.1 
		273.2,493.1 306.1,493.1 306.1,486.8 266,486.8 	"/>
	<polygon class="st1" points="386.8,536.9 352.2,487.2 351.9,486.8 344.2,486.8 344.2,549.7 351.3,549.7 351.3,499.6 385.9,549.3 
		386.2,549.7 394,549.7 394,486.8 386.8,486.8 	"/>
	<path class="st1" d="M464.9,485.8L464.9,485.8c-19.2,0-31.6,12.7-31.6,32.4c0,19.5,12.7,32.5,31.6,32.5c19.2,0,31.7-12.8,31.7-32.5
		C496.6,498.8,483.9,485.8,464.9,485.8z M464.9,492.1L464.9,492.1c15.1,0,24.5,10,24.5,26.1c0,16.1-9.4,26.1-24.5,26.1
		c-14.8,0-24.4-10.3-24.4-26.1C440.5,502.1,449.9,492.1,464.9,492.1z"/>
	<polygon class="st1" points="567.2,540.3 544,486.8 535.9,486.8 535.9,549.7 543.1,549.7 543.1,502.5 564,549.7 570.3,549.7 
		591.3,502.5 591.3,549.7 598.5,549.7 598.5,486.8 590.4,486.8 	"/>
	<rect x="641" y="486.8" class="st1" width="7.2" height="62.9"/>
	<path class="st1" d="M719.8,492.1c5.4,0,10.1,1.4,13.8,4l0.7,0.5l4.6-5.1l-0.9-0.7c-5-3.5-11.2-5.2-18.2-5.2
		c-19.2,0-31.6,12.7-31.6,32.4c0,19.7,12.4,32.4,31.6,32.4c7.1,0,13.2-1.8,18.2-5.2l0.9-0.7l-4.6-5.1l-0.7,0.5
		c-3.7,2.7-8.4,4-13.8,4c-15.1,0-24.4-10-24.4-26.1S704.8,492.1,719.8,492.1z"/>
	<path class="st1" d="M801.5,514.7l-2.2-0.4c-9.1-1.7-16-3.6-16-10.9c0-7.9,9.2-11.4,18.2-11.4c6.4,0,12.7,1.6,17.1,4.3l0.7,0.5
		l4.3-5.3l-1-0.6c-5.4-3.3-12.9-5.2-20.6-5.2c-13,0-26.1,5.5-26.1,17.9c0,11.9,10.6,14.9,21.4,16.9c1,0.2,2,0.4,3,0.5
		c10.4,1.9,17.9,3.2,17.9,11.8c0,8.4-9.9,11.4-18.3,11.4c-8.9,0-17.4-2.8-21.7-7.2l-0.8-0.8l-4.5,5l0.7,0.7
		c5.3,5.3,15.5,8.6,26.1,8.6c12.9,0,25.9-5.5,25.9-17.8C825.8,519.3,814,517,801.5,514.7z"/>
</g>
<path class="st1" d="M297.4,173.9c-0.8,11-4.4,24.7-14.7,38.7l-4.6-28.6c-2.8,1.6-5.6,3.1-8.3,4.8l5.3,32.8
	c-5.1,5.3-11.3,10.6-18.9,15.7l-5.9-36.3c-2.7,1.8-5.5,3.7-8.2,5.6l5.8,35.8c-3.6,2.1-7.5,4.2-11.7,6.3c-2.4,1.2-4.9,2.3-7.4,3.3
	l-5.6-31.4c-2.7,2.1-5.4,4.2-8,6.4l5,28.3c-7,2.4-14.3,4.3-21.7,5.8l-2.7-17.6c-2.7,2.4-5.3,4.8-8,7.3l1.8,11.8
	c-5,0.7-10.1,1.3-15.2,1.6l0,0c-11.8,1.5-56.4-1.6-56.4-1.6l-0.1,0.1c-46-5.1-88.5-17.6-112.3-22.4c11.5,4.8,31.3,12.4,55.5,19.3
	l14.3,84.3c2.2-4.9,4.4-9.6,6.7-14.3l-11.4-67.4c6.8,1.8,13.9,3.5,21.2,5l5.3,34.2c2.4-4.1,4.8-8.1,7.3-12l-3.1-20.3
	c4.8,0.9,9.8,1.7,14.7,2.4c18.3,3.2,36.2,3.7,47,3.7c0,0,0,0,0,0c0.2,0,0.4,0,0.5,0c0.7,0,1.4,0,2.1,0c26.9-0.3,53.8-4.7,77.7-15.8
	c52.8-24.6,68.3-59.8,69.4-92.2C307.8,169.2,302.7,171.4,297.4,173.9z"/>
</svg>
